<svg width="40" height="40" viewBox="0 0 40 40" fill="none" xmlns="http://www.w3.org/2000/svg"><circle cx="20" cy="20" r="20" fill="url(#paint0_linear_27_4)"/><path d="M14.0595 20.5995V17.8762H11.6838C10.7541 17.8762 10 18.6291 10 19.5572V26.2989C10 27.0976 10.6486 27.7451 11.4487 27.7451C11.709 27.7451 11.9491 27.8838 12.0792 28.1088L13.0346 29.7609C13.2195 30.0797 13.6805 30.0797 13.8648 29.7609L14.7841 28.1721C14.9366 27.9078 15.2188 27.7451 15.524 27.7451H23.942C24.8717 27.7451 25.6253 26.9928 25.6253 26.0641V23.5843H17.0498C15.3982 23.5843 14.0595 22.2478 14.0595 20.5995Z" fill="white"/><path d="M29.3326 12.4116C29.1144 12.4116 28.9126 12.2953 28.8038 12.1069L27.7237 10.2391C27.5394 9.92029 27.0784 9.92029 26.8935 10.2391L25.8834 11.9851C25.7309 12.2494 25.4487 12.4116 25.143 12.4116H17.0591C16.1294 12.4116 15.3752 13.1644 15.3752 14.0926V20.5995C15.3752 21.5276 16.1288 22.2805 17.0591 22.2805H29.3162C30.2459 22.2805 31 21.5276 31 20.5995V14.0762C31 13.1568 30.2535 12.4116 29.3326 12.4116ZM27.8943 19.3214H18.4809C18.12 19.3214 17.8274 19.0293 17.8274 18.6689C17.8274 18.3086 18.12 18.0165 18.4809 18.0165H27.8943C28.2552 18.0165 28.5478 18.3086 28.5478 18.6689C28.5478 19.0293 28.2552 19.3214 27.8943 19.3214ZM27.8943 16.5462H18.4809C18.12 16.5462 17.8274 16.2541 17.8274 15.8938C17.8274 15.5334 18.12 15.2413 18.4809 15.2413H27.8943C28.2552 15.2413 28.5478 15.5334 28.5478 15.8938C28.5478 16.2541 28.2552 16.5462 27.8943 16.5462Z" fill="white"/><defs><linearGradient id="paint0_linear_27_4" x1="20.3854" y1="57.904" x2="20.3854" y2="-11.9484" gradientUnits="userSpaceOnUse"><stop offset="0.0307162" stop-color="#FCA564"/><stop offset="0.943015" stop-color="#FD5A80"/></linearGradient></defs></svg>