<svg width="405" height="80" viewBox="0 0 405 80" fill="none" xmlns="http://www.w3.org/2000/svg"><path d="M109.952 55C108.483 55 107.072 54.772 105.717 54.3159C104.375 53.8471 103.197 53.182 102.184 52.3204C101.171 51.4463 100.443 50.401 100 49.1848L104.349 47.5885C104.527 48.0952 104.887 48.5577 105.432 48.9758C105.976 49.3938 106.641 49.7296 107.426 49.983C108.211 50.2363 109.053 50.363 109.952 50.363C110.876 50.363 111.737 50.2237 112.535 49.945C113.346 49.6536 113.998 49.2545 114.491 48.7477C114.985 48.2283 115.232 47.6265 115.232 46.9423C115.232 46.2455 114.973 45.6754 114.453 45.232C113.934 44.7759 113.27 44.4148 112.459 44.1488C111.649 43.8827 110.813 43.68 109.952 43.5406C108.066 43.2492 106.375 42.7995 104.881 42.1914C103.387 41.5832 102.203 40.7407 101.329 39.6638C100.468 38.5869 100.038 37.1933 100.038 35.483C100.038 33.874 100.5 32.4677 101.424 31.2641C102.349 30.0605 103.564 29.123 105.071 28.4515C106.578 27.78 108.205 27.4443 109.952 27.4443C111.408 27.4443 112.814 27.6723 114.169 28.1284C115.523 28.5845 116.707 29.2497 117.72 30.1239C118.746 30.998 119.48 32.0496 119.923 33.2785L115.555 34.8558C115.378 34.3491 115.017 33.8866 114.472 33.4685C113.928 33.0505 113.263 32.7211 112.478 32.4803C111.693 32.227 110.851 32.1003 109.952 32.1003C109.053 32.0876 108.198 32.2333 107.388 32.5374C106.59 32.8287 105.938 33.2278 105.432 33.7346C104.925 34.2414 104.672 34.8242 104.672 35.483C104.672 36.3318 104.906 36.9716 105.375 37.4024C105.856 37.8331 106.495 38.1498 107.293 38.3526C108.091 38.5426 108.977 38.72 109.952 38.8847C111.725 39.1634 113.364 39.6322 114.871 40.291C116.378 40.9498 117.587 41.8303 118.499 42.9325C119.41 44.0221 119.866 45.3587 119.866 46.9423C119.866 48.5513 119.41 49.964 118.499 51.1802C117.587 52.3838 116.378 53.3213 114.871 53.9928C113.364 54.6643 111.725 55 109.952 55Z" fill="#2E2E2E"/><path d="M131.847 55C130.099 55 128.504 54.5502 127.061 53.6507C125.63 52.7512 124.484 51.5476 123.623 50.04C122.775 48.5197 122.35 46.841 122.35 45.0039C122.35 43.6103 122.597 42.3117 123.091 41.1081C123.585 39.8919 124.262 38.8277 125.123 37.9155C125.997 36.9906 127.01 36.2685 128.162 35.749C129.314 35.2296 130.543 34.9699 131.847 34.9699C133.594 34.9699 135.183 35.4196 136.614 36.3191C138.057 37.2187 139.203 38.4286 140.052 39.9489C140.913 41.4692 141.343 43.1542 141.343 45.0039C141.343 46.3849 141.096 47.6772 140.602 48.8807C140.109 50.0843 139.425 51.1485 138.551 52.0734C137.69 52.9856 136.684 53.7014 135.531 54.2208C134.392 54.7403 133.164 55 131.847 55ZM131.847 50.363C132.771 50.363 133.6 50.116 134.335 49.6219C135.069 49.1278 135.645 48.4753 136.063 47.6645C136.494 46.8536 136.709 45.9668 136.709 45.0039C136.709 44.0157 136.487 43.1162 136.044 42.3054C135.614 41.4819 135.025 40.8294 134.278 40.348C133.543 39.8539 132.733 39.6068 131.847 39.6068C130.935 39.6068 130.112 39.8539 129.378 40.348C128.643 40.8421 128.061 41.5009 127.63 42.3244C127.2 43.1479 126.985 44.0411 126.985 45.0039C126.985 46.0048 127.206 46.9107 127.649 47.7215C128.093 48.5323 128.681 49.1785 129.416 49.6599C130.163 50.1287 130.973 50.363 131.847 50.363Z" fill="#2E2E2E"/><path d="M144.041 54.5059V26H148.675V54.5059H144.041Z" fill="#2E2E2E"/><path d="M153.24 35.502H157.874V54.5059H153.24V35.502ZM155.595 33.0505C154.912 33.0505 154.335 32.8287 153.867 32.3853C153.399 31.9292 153.164 31.3591 153.164 30.675C153.164 30.0035 153.399 29.4397 153.867 28.9836C154.335 28.5275 154.905 28.2995 155.576 28.2995C156.247 28.2995 156.811 28.5275 157.267 28.9836C157.735 29.4397 157.969 30.0035 157.969 30.675C157.969 31.3591 157.742 31.9292 157.286 32.3853C156.83 32.8287 156.266 33.0505 155.595 33.0505Z" fill="#2E2E2E"/><path d="M176.353 26H180.987V54.5059H176.353V52.1304C175.745 52.9792 174.979 53.6697 174.055 54.2018C173.131 54.7339 172.061 55 170.845 55C169.465 55 168.174 54.7403 166.971 54.2208C165.768 53.7014 164.704 52.9856 163.78 52.0734C162.868 51.1485 162.153 50.0843 161.634 48.8807C161.115 47.6772 160.855 46.3849 160.855 45.0039C160.855 43.623 161.115 42.3307 161.634 41.1271C162.153 39.9235 162.868 38.8657 163.78 37.9535C164.704 37.0286 165.768 36.3065 166.971 35.787C168.174 35.2676 169.465 35.0079 170.845 35.0079C172.061 35.0079 173.131 35.2739 174.055 35.806C174.979 36.3255 175.745 37.0159 176.353 37.8775V26ZM170.902 50.5341C171.89 50.5341 172.764 50.287 173.523 49.7929C174.283 49.2988 174.878 48.6337 175.309 47.7975C175.739 46.9487 175.954 46.0175 175.954 45.0039C175.954 43.9777 175.739 43.0465 175.309 42.2104C174.878 41.3615 174.277 40.69 173.504 40.1959C172.745 39.7018 171.877 39.4548 170.902 39.4548C169.927 39.4548 169.035 39.7082 168.224 40.2149C167.427 40.709 166.787 41.3742 166.306 42.2104C165.838 43.0465 165.603 43.9777 165.603 45.0039C165.603 46.0301 165.844 46.9613 166.325 47.7975C166.806 48.6337 167.446 49.2988 168.243 49.7929C169.054 50.287 169.94 50.5341 170.902 50.5341Z" fill="#2E2E2E"/><path d="M214.808 27.9004V32.5374H206.679V54.5059H202.045V32.5374H193.916V27.9004H214.808Z" fill="#2E2E2E"/><path d="M224.065 55C222.318 55 220.722 54.5502 219.279 53.6507C217.848 52.7512 216.702 51.5413 215.841 50.021C214.993 48.5007 214.569 46.822 214.569 44.9849C214.569 43.604 214.816 42.3117 215.309 41.1081C215.803 39.8919 216.481 38.8277 217.342 37.9155C218.215 36.9906 219.228 36.2685 220.38 35.749C221.533 35.2296 222.761 34.9699 224.065 34.9699C225.546 34.9699 226.901 35.2866 228.129 35.9201C229.37 36.5408 230.421 37.396 231.282 38.4856C232.143 39.5751 232.77 40.8167 233.163 42.2104C233.555 43.604 233.644 45.0609 233.428 46.5813H219.545C219.722 47.2907 220.013 47.9305 220.418 48.5007C220.824 49.0581 221.336 49.5079 221.957 49.8499C222.577 50.1793 223.28 50.3504 224.065 50.363C224.875 50.3757 225.61 50.1857 226.268 49.7929C226.939 49.3875 227.496 48.8427 227.94 48.1586L232.669 49.2608C231.896 50.9458 230.744 52.3268 229.212 53.4037C227.68 54.4679 225.964 55 224.065 55ZM219.393 43.1035H228.737C228.598 42.3434 228.3 41.6592 227.845 41.0511C227.401 40.4303 226.851 39.9362 226.192 39.5688C225.534 39.2014 224.825 39.0177 224.065 39.0177C223.305 39.0177 222.603 39.2014 221.957 39.5688C221.311 39.9235 220.76 40.4113 220.304 41.0321C219.861 41.6402 219.557 42.3307 219.393 43.1035Z" fill="#2E2E2E"/><path d="M242.27 54.848C241.282 54.7846 240.326 54.5882 239.402 54.2588C238.49 53.9168 237.68 53.4543 236.971 52.8716C236.262 52.2888 235.717 51.592 235.337 50.7811L239.25 49.1088C239.402 49.3622 239.649 49.6346 239.991 49.926C240.333 50.2047 240.738 50.4391 241.206 50.6291C241.687 50.8191 242.213 50.9142 242.783 50.9142C243.264 50.9142 243.72 50.8508 244.15 50.7241C244.593 50.5848 244.948 50.3757 245.214 50.097C245.492 49.8183 245.631 49.4572 245.631 49.0138C245.631 48.545 245.467 48.1839 245.138 47.9305C244.821 47.6645 244.416 47.4681 243.922 47.3414C243.441 47.2021 242.973 47.0754 242.517 46.9613C241.314 46.7206 240.193 46.3469 239.155 45.8401C238.129 45.3333 237.3 44.6809 236.667 43.8827C236.047 43.0719 235.736 42.0963 235.736 40.9561C235.736 39.7018 236.066 38.6186 236.724 37.7064C237.395 36.7942 238.262 36.0911 239.326 35.597C240.402 35.1029 241.561 34.8558 242.802 34.8558C244.308 34.8558 245.688 35.1726 246.942 35.806C248.208 36.4268 249.208 37.3073 249.943 38.4476L246.277 40.614C246.1 40.31 245.853 40.0312 245.537 39.7779C245.22 39.5118 244.859 39.2964 244.454 39.1317C244.049 38.9543 243.625 38.853 243.181 38.8277C242.612 38.8023 242.093 38.853 241.624 38.9797C241.156 39.1064 240.776 39.3218 240.484 39.6258C240.206 39.9299 240.067 40.3353 240.067 40.8421C240.067 41.3235 240.257 41.6846 240.636 41.9253C241.016 42.1533 241.472 42.3307 242.004 42.4574C242.548 42.5841 243.067 42.7235 243.561 42.8755C244.676 43.2429 245.72 43.6927 246.695 44.2248C247.683 44.7569 248.474 45.4093 249.069 46.1822C249.664 46.955 249.949 47.8799 249.924 48.9567C249.924 50.1857 249.557 51.2626 248.822 52.1874C248.088 53.0996 247.138 53.7964 245.973 54.2778C244.821 54.7593 243.587 54.9493 242.27 54.848Z" fill="#2E2E2E"/><path d="M263.354 40.1389H259.67V54.5059H255.036V40.1389H252.225V35.502H255.036V29.5347H259.67V35.502H263.354V40.1389Z" fill="#2E2E2E"/><path d="M266.491 35.502H271.126V54.5059H266.491V35.502ZM268.846 33.0505C268.163 33.0505 267.587 32.8287 267.118 32.3853C266.65 31.9292 266.415 31.3591 266.415 30.675C266.415 30.0035 266.65 29.4397 267.118 28.9836C267.587 28.5275 268.156 28.2995 268.827 28.2995C269.499 28.2995 270.062 28.5275 270.518 28.9836C270.986 29.4397 271.221 30.0035 271.221 30.675C271.221 31.3591 270.993 31.9292 270.537 32.3853C270.081 32.8287 269.518 33.0505 268.846 33.0505Z" fill="#2E2E2E"/><path d="M275.543 54.5059V35.502H280.177V37.1933C280.822 36.5092 281.595 35.9707 282.494 35.578C283.393 35.1726 284.361 34.9699 285.4 34.9699C286.717 34.9699 287.926 35.2803 289.027 35.901C290.142 36.5218 291.028 37.3517 291.686 38.3906C292.357 37.3517 293.244 36.5218 294.345 35.901C295.447 35.2803 296.656 34.9699 297.973 34.9699C299.366 34.9699 300.625 35.3119 301.752 35.9961C302.892 36.6675 303.797 37.5734 304.468 38.7136C305.152 39.8412 305.494 41.1018 305.494 42.4954V54.5059H300.86V43.7307C300.86 42.9958 300.676 42.3244 300.309 41.7163C299.954 41.0955 299.473 40.6014 298.866 40.2339C298.27 39.8539 297.599 39.6638 296.852 39.6638C296.105 39.6638 295.428 39.8475 294.82 40.2149C294.225 40.5697 293.744 41.0511 293.377 41.6592C293.009 42.2674 292.826 42.9578 292.826 43.7307V54.5059H288.192V43.7307C288.192 42.9578 288.014 42.2674 287.66 41.6592C287.305 41.0511 286.824 40.5697 286.216 40.2149C285.609 39.8475 284.931 39.6638 284.184 39.6638C283.45 39.6638 282.779 39.8539 282.171 40.2339C281.563 40.6014 281.076 41.0955 280.709 41.7163C280.354 42.3244 280.177 42.9958 280.177 43.7307V54.5059H275.543Z" fill="#2E2E2E"/><path d="M317.285 55C315.537 55 313.942 54.5502 312.499 53.6507C311.068 52.7512 309.922 51.5476 309.061 50.04C308.213 48.5197 307.788 46.841 307.788 45.0039C307.788 43.6103 308.035 42.3117 308.529 41.1081C309.023 39.8919 309.7 38.8277 310.561 37.9155C311.435 36.9906 312.448 36.2685 313.6 35.749C314.752 35.2296 315.981 34.9699 317.285 34.9699C319.032 34.9699 320.621 35.4196 322.052 36.3191C323.495 37.2187 324.641 38.4286 325.49 39.9489C326.351 41.4692 326.781 43.1542 326.781 45.0039C326.781 46.3849 326.534 47.6772 326.04 48.8807C325.547 50.0843 324.863 51.1485 323.989 52.0734C323.128 52.9856 322.122 53.7014 320.969 54.2208C319.83 54.7403 318.602 55 317.285 55ZM317.285 50.363C318.209 50.363 319.038 50.116 319.773 49.6219C320.507 49.1278 321.083 48.4753 321.501 47.6645C321.932 46.8536 322.147 45.9668 322.147 45.0039C322.147 44.0157 321.925 43.1162 321.482 42.3054C321.052 41.4819 320.463 40.8294 319.716 40.348C318.981 39.8539 318.171 39.6068 317.285 39.6068C316.373 39.6068 315.55 39.8539 314.816 40.348C314.081 40.8421 313.499 41.5009 313.068 42.3244C312.638 43.1479 312.423 44.0411 312.423 45.0039C312.423 46.0048 312.644 46.9107 313.087 47.7215C313.531 48.5323 314.119 49.1785 314.854 49.6599C315.601 50.1287 316.411 50.363 317.285 50.363Z" fill="#2E2E2E"/><path d="M347.136 42.4954V54.5059H342.501V43.7117C342.501 42.9642 342.318 42.2864 341.951 41.6782C341.583 41.0574 341.09 40.5697 340.469 40.2149C339.861 39.8475 339.184 39.6638 338.437 39.6638C337.69 39.6638 337.006 39.8475 336.386 40.2149C335.778 40.5697 335.291 41.0574 334.923 41.6782C334.569 42.2864 334.392 42.9642 334.392 43.7117V54.5059H329.757L329.738 35.502H334.373L334.392 37.1933C335.037 36.5092 335.81 35.9707 336.709 35.578C337.608 35.1726 338.576 34.9699 339.615 34.9699C340.995 34.9699 342.255 35.3119 343.394 35.9961C344.534 36.6675 345.439 37.5734 346.11 38.7136C346.794 39.8412 347.136 41.1018 347.136 42.4954Z" fill="#2E2E2E"/><path d="M350.92 35.502H355.554V54.5059H350.92V35.502ZM353.275 33.0505C352.591 33.0505 352.015 32.8287 351.546 32.3853C351.078 31.9292 350.844 31.3591 350.844 30.675C350.844 30.0035 351.078 29.4397 351.546 28.9836C352.015 28.5275 352.585 28.2995 353.256 28.2995C353.927 28.2995 354.49 28.5275 354.946 28.9836C355.415 29.4397 355.649 30.0035 355.649 30.675C355.649 31.3591 355.421 31.9292 354.965 32.3853C354.509 32.8287 353.946 33.0505 353.275 33.0505Z" fill="#2E2E2E"/><path d="M373.995 35.502H378.629V54.5059H373.995L373.786 52.1494C373.266 52.9983 372.576 53.6887 371.715 54.2208C370.867 54.7403 369.86 55 368.696 55C367.29 55 365.973 54.7339 364.745 54.2018C363.517 53.6697 362.434 52.9349 361.497 51.9974C360.573 51.0599 359.845 49.9766 359.313 48.7477C358.794 47.5188 358.534 46.2012 358.534 44.7949C358.534 43.4393 358.781 42.166 359.275 40.9751C359.782 39.7842 360.484 38.739 361.383 37.8394C362.282 36.9399 363.321 36.2368 364.498 35.73C365.676 35.2232 366.942 34.9699 368.297 34.9699C369.55 34.9699 370.671 35.2486 371.658 35.806C372.659 36.3635 373.507 37.073 374.203 37.9345L373.995 35.502ZM368.582 50.5341C369.569 50.5341 370.443 50.287 371.203 49.7929C371.962 49.2988 372.557 48.6337 372.988 47.7975C373.418 46.9487 373.634 46.0175 373.634 45.0039C373.634 43.9777 373.418 43.0465 372.988 42.2104C372.557 41.3615 371.956 40.69 371.184 40.1959C370.424 39.7018 369.557 39.4548 368.582 39.4548C367.607 39.4548 366.714 39.7082 365.904 40.2149C365.106 40.709 364.467 41.3742 363.985 42.2104C363.517 43.0465 363.283 43.9777 363.283 45.0039C363.283 46.0301 363.523 46.9613 364.004 47.7975C364.486 48.6337 365.125 49.2988 365.923 49.7929C366.733 50.287 367.619 50.5341 368.582 50.5341Z" fill="#2E2E2E"/><path d="M382.525 54.5059V26H387.159V54.5059H382.525Z" fill="#2E2E2E"/><path d="M397.327 54.848C396.339 54.7846 395.383 54.5882 394.459 54.2588C393.547 53.9168 392.737 53.4543 392.028 52.8716C391.319 52.2888 390.775 51.592 390.395 50.7811L394.307 49.1088C394.459 49.3622 394.706 49.6346 395.048 49.926C395.39 50.2047 395.795 50.4391 396.263 50.6291C396.745 50.8191 397.27 50.9142 397.84 50.9142C398.321 50.9142 398.777 50.8508 399.207 50.7241C399.65 50.5848 400.005 50.3757 400.271 50.097C400.549 49.8183 400.689 49.4572 400.689 49.0138C400.689 48.545 400.524 48.1839 400.195 47.9305C399.878 47.6645 399.473 47.4681 398.979 47.3414C398.498 47.2021 398.03 47.0754 397.574 46.9613C396.371 46.7206 395.25 46.3469 394.212 45.8401C393.187 45.3333 392.357 44.6809 391.724 43.8827C391.104 43.0719 390.793 42.0963 390.793 40.9561C390.793 39.7018 391.123 38.6186 391.781 37.7064C392.452 36.7942 393.32 36.0911 394.383 35.597C395.459 35.1029 396.618 34.8558 397.859 34.8558C399.365 34.8558 400.746 35.1726 401.999 35.806C403.265 36.4268 404.266 37.3073 405 38.4476L401.334 40.614C401.157 40.31 400.91 40.0312 400.594 39.7779C400.277 39.5118 399.916 39.2964 399.511 39.1317C399.106 38.9543 398.682 38.853 398.239 38.8277C397.669 38.8023 397.15 38.853 396.681 38.9797C396.213 39.1064 395.833 39.3218 395.542 39.6258C395.263 39.9299 395.124 40.3353 395.124 40.8421C395.124 41.3235 395.314 41.6846 395.694 41.9253C396.073 42.1533 396.529 42.3307 397.061 42.4574C397.605 42.5841 398.125 42.7235 398.618 42.8755C399.733 43.2429 400.777 43.6927 401.752 44.2248C402.74 44.7569 403.531 45.4093 404.126 46.1822C404.721 46.955 405.006 47.8799 404.981 48.9567C404.981 50.1857 404.614 51.2626 403.879 52.1874C403.145 53.0996 402.195 53.7964 401.031 54.2778C399.878 54.7593 398.644 54.9493 397.327 54.848Z" fill="#2E2E2E"/><circle cx="40" cy="40" r="40" fill="url(#paint0_linear_27_8)"/><path d="M25.8921 41.3188V35.3276H20.6884C18.6519 35.3276 17 36.9839 17 39.0259V53.8575C17 55.6148 18.4207 57.0393 20.1733 57.0393C20.7435 57.0393 21.2694 57.3444 21.5545 57.8393L23.6472 61.4739C24.0521 62.1754 25.062 62.1754 25.4657 61.4739L27.4794 57.9786C27.8136 57.3972 28.4317 57.0393 29.1002 57.0393H47.5397C49.5761 57.0393 51.2269 55.3841 51.2269 53.341V47.8855H32.4423C28.8246 47.8855 25.8921 44.9451 25.8921 41.3188Z" fill="white"/><path d="M59.3476 23.3054C58.8696 23.3054 58.4276 23.0496 58.1892 22.6352L55.8233 18.5261C55.4196 17.8246 54.4097 17.8246 54.0048 18.5261L51.7923 22.3673C51.4581 22.9487 50.8399 23.3054 50.1703 23.3054H32.4627C30.4263 23.3054 28.7743 24.9618 28.7743 27.0037V41.3188C28.7743 43.3608 30.4251 45.0171 32.4627 45.0171H59.3116C61.3481 45.0171 63 43.3608 63 41.3188V26.9677C63 24.945 61.3648 23.3054 59.3476 23.3054ZM56.197 38.507H35.5773C34.7867 38.507 34.1458 37.8644 34.1458 37.0716C34.1458 36.2789 34.7867 35.6363 35.5773 35.6363H56.197C56.9877 35.6363 57.6285 36.2789 57.6285 37.0716C57.6285 37.8644 56.9877 38.507 56.197 38.507ZM56.197 32.4016H35.5773C34.7867 32.4016 34.1458 31.759 34.1458 30.9663C34.1458 30.1735 34.7867 29.5309 35.5773 29.5309H56.197C56.9877 29.5309 57.6285 30.1735 57.6285 30.9663C57.6285 31.759 56.9877 32.4016 56.197 32.4016Z" fill="white"/><defs><linearGradient id="paint0_linear_27_8" x1="40.7709" y1="115.808" x2="40.7709" y2="-23.8969" gradientUnits="userSpaceOnUse"><stop offset="0.0307162" stop-color="#FCA564"/><stop offset="0.943015" stop-color="#FD5A80"/></linearGradient></defs></svg>